<?xml version="1.0" encoding="UTF-8" standalone="no"?>
<svg
   width="116"
   height="116"
   version="1.1"
   id="svg53"
   xmlns="http://www.w3.org/2000/svg"
   xmlns:svg="http://www.w3.org/2000/svg">
  <path
     fill="#464c58"
     d="M 6.10352e-5,0 H 2.4486978 5.2973865 11.13052 h 2.473456 4.580404 4.024534 71.698944 2.515404 2.359757 2.520951 6.75019 3.13381 4.81184 v 3.5309801 2.3227363 4.9685386 2.032873 3.839093 1.603606 1.546172 2.294507 71.765213 2.387623 2.474057 1.685171 4.71419 1.97437 4.69663 2.20649 1.95749 h -4.80391 -3.15544 -6.7477 H 98.785171 96.416805 93.912276 22.205063 19.939669 19.892429 18.18857 13.596384 11.143364 5.296922 2.4697001 6.10352e-5 v -1.94616 -2.22801 -4.69403 -1.97109 V 100.444 98.752825 96.289416 93.898847 22.137939 19.838562 18.290577 16.685045 12.849804 10.804798 5.8337789 3.5138973 Z"
     id="path1"
     style="stroke-width:0.113281" />
  <path
     fill="#99999c"
     d="m 45.627495,7.9270759 c 0.213422,-0.1286646 0.483144,-0.1527028 0.725225,-0.1846141 -0.258167,0.3913632 -0.909873,0.6836509 -1.2837,0.9864736 -0.370542,0.3001607 -0.680705,0.67537 -1.075263,0.9447636 -0.203339,0.1388032 -0.423105,0.2456158 -0.665639,0.2938509 -0.178871,0.03557 -0.422199,0.048813 -0.583171,-0.055304 -0.105918,-0.068535 -0.174226,-0.179675 -0.177624,-0.3066403 -0.0036,-0.1361525 0.07748,-0.2795662 0.18748,-0.35645 0.58419,-0.4083894 1.397434,-0.6943559 2.069417,-0.9471312 0.247745,-0.093174 0.593819,-0.1538582 0.801576,-0.3169489 z"
     id="path2"
     style="stroke-width:0.113281" />
  <defs
     id="defs3">
    <linearGradient
       id="gradient_0"
       gradientUnits="userSpaceOnUse"
       x1="640.53967"
       y1="86.62867"
       x2="620.02911"
       y2="92.956451"
       gradientTransform="matrix(0.113281,0,0,0.113281,6.10352e-5,0)">
      <stop
         offset="0"
         stop-color="#74757B"
         id="stop2" />
      <stop
         offset="1"
         stop-color="#9EA0A0"
         id="stop3" />
    </linearGradient>
  </defs>
  <path
     fill="url(#gradient_0)"
     d="m 73.022126,9.6132296 c -0.05743,0.375923 -0.259866,0.6248464 -0.5621,0.8488934 -0.305066,0.226155 -0.673455,0.393856 -1.020662,0.544961 -1.744867,0.288448 -3.495851,0.742081 -5.248422,0.953351 0.523585,-0.488695 4.152655,-0.563573 4.509604,-1.050002 -0.164371,-0.33146 -0.448027,-0.641386 -0.673796,-0.9363468 l -0.160745,0.04623 0.04327,-0.059223 c -0.846549,0.050206 -1.692305,0.1831408 -2.529565,0.3147508 -0.543522,0.08545 -1.150708,0.239476 -1.697629,0.20872 -0.02107,-0.0012 -0.04214,-0.0033 -0.0631,-0.0049 2.305948,-0.5841106 5.021406,-0.7212825 7.403139,-0.8664181 z"
     id="path3"
     style="fill:url(#gradient_0);stroke-width:0.113281" />
  <path
     fill="#ffffff"
     d="m 46.258471,6.0738667 q 7.472014,-0.1536091 14.944482,-0.022668 c 0.873284,0.053412 4.647353,-0.088552 5.041684,0.028796 -0.384022,0.1198739 -1.453848,-0.1639063 -1.626601,0.196973 -0.0614,0.1281888 -0.03704,0.3522246 -0.02572,0.4894079 0.327495,0.1227399 1.992952,0.3426184 2.485838,0.4269334 0.1723,0.029464 0.364765,0.013175 0.522112,0.094567 l -0.0682,0.038833 C 65.788908,7.071657 64.047326,6.7364246 62.293963,6.5615867 56.950385,6.0287469 51.573502,6.5316465 46.35272,7.7424618 c -0.242081,0.031911 -0.511803,0.055949 -0.725225,0.1846141 l -0.11464,0.00869 -0.03931,-0.046264 C 45.904805,7.5364843 51.52377,6.7043447 52.362049,6.59615 52.822083,6.53678 54.049596,6.518043 54.391591,6.3551334 l 0.01722,-0.1509696 c -0.09923,-0.1025193 -0.213988,-0.091905 -0.354569,-0.098792 -0.560402,-0.027414 -1.148443,0.026145 -1.713602,0.019586 -1.62377,-0.018827 -3.252751,-0.048348 -4.876181,-0.0082 -0.526983,0.013039 -1.217317,0.1597828 -1.722664,0.037303 0.180004,-0.023347 0.366917,0.019734 0.516675,-0.080192 z"
     id="path4"
     style="stroke-width:0.113281" />
  <path
     fill="#ffffff"
     d="m 34.262013,14.398015 0.02266,0.01654 c -0.116113,0.414155 -0.731795,1.235669 -0.976709,1.665004 q -0.718315,1.24122 -1.323802,2.54112 c -2.072589,4.492837 -3.710972,9.403342 -4.601021,14.27046 -2.744685,15.008373 -0.0059,29.18651 7.219285,42.550383 1.320517,2.442565 2.742646,4.867571 4.324276,7.151656 q 1.251868,1.834359 2.606935,3.59384 1.355068,1.759367 2.809029,3.438078 1.453849,1.678825 3.00172,3.271216 1.547985,1.592391 3.184782,3.093364 c 0.807581,0.72851 1.612216,1.480696 2.474737,2.143616 2.931826,2.253498 6.225357,4.102698 9.587991,5.622138 2.195385,0.992 4.823052,2.05718 7.193343,2.4898 l -0.859916,0.39762 c -5.758186,-0.83953 -9.92047,-2.59391 -14.863147,-5.64559 -1.002084,-0.61885 -2.071796,-1.215956 -3.011009,-1.926341 -1.374891,-1.040033 -2.53251,-2.348088 -3.887124,-3.412137 -1.603946,-0.0069 -3.204493,0.09753 -4.807872,0.117699 -5.875093,0.0742 -12.009485,-0.0045 -17.788289,-1.06031 q -1.16906,-1.122502 -2.29496,-2.288276 c 0.859463,0.170714 1.742602,0.275952 2.609201,0.408491 5.188837,0.79308 10.408599,1.040146 15.652036,1.068127 1.639629,0.0087 3.278466,-0.04656 4.918435,-0.04237 -1.827676,-2.095585 -3.681293,-4.151862 -5.469207,-6.283357 -1.772168,0.112602 -3.538672,0.292718 -5.310047,0.415175 q -3.667132,0.230074 -7.340835,0.297816 c -2.970568,0.04384 -5.915194,-0.134351 -8.880098,-0.275839 -0.600049,-0.758643 -1.116951,-1.563278 -1.63691,-2.377542 3.537539,0.480878 7.071793,0.45369 10.632894,0.455729 3.595652,0.002 7.576913,0.0027 11.136315,-0.466491 -0.578412,-0.912252 -1.2402,-1.774207 -1.83787,-2.674677 -0.905229,-1.363677 -1.744415,-2.778217 -2.589038,-4.179956 -4.180975,0.520413 -8.410661,0.715256 -12.606249,1.080474 -2.631065,0.102293 -5.256918,0.29589 -7.890928,0.354796 -0.333499,-0.725451 -0.768159,-1.399247 -1.094181,-2.130022 3.55657,-0.03852 7.129226,-0.09232 10.678546,-0.327609 3.324571,-0.220332 6.634189,-0.607413 9.963744,-0.769858 -2.976005,-4.976208 -5.125625,-10.510324 -6.636341,-16.101308 q -0.445534,-1.657414 -0.80758,-3.335106 c -0.19734,-0.944876 -0.335429,-1.943561 -0.658167,-2.854567 l -0.03025,-0.08405 c -0.744256,0.639811 -1.430286,1.361751 -2.129343,2.050386 -1.623203,1.598961 -2.992317,3.16088 -4.42838,4.938485 -0.563347,0.697358 -1.163057,1.370927 -1.699215,2.089468 -1.485681,1.991027 -2.728487,4.198307 -3.821762,6.424958 -0.700303,1.426661 -1.123634,2.959806 -1.804,4.383296 l -0.04154,0.08587 c -0.159409,-0.649101 -0.326419,-1.346798 -0.249116,-2.017648 0.104196,-0.904323 0.501359,-1.849766 0.806878,-2.704811 2.260975,-6.329576 7.777194,-13.550786 13.05303,-17.677047 -0.04826,-1.092935 -0.214668,-2.193007 -0.302007,-3.285262 Q 24.2738,46.275855 24.188273,43.652947 c -0.806221,0.75581 -1.556141,1.578117 -2.313651,2.382639 -0.847228,0.899904 -1.707598,1.793918 -2.504303,2.739134 -0.655897,0.778014 -1.253228,1.605645 -1.917961,2.375956 C 16.873719,51.8213 16.06274,52.251428 15.481382,52.934172 12.526447,56.404196 10.11312,60.722128 8.6987051,65.052747 8.294156,66.291475 8.009866,67.568945 7.7104757,68.836106 7.6557496,68.264263 7.6026095,67.692987 7.6148325,67.11786 7.7251569,61.925172 11.158081,55.641362 14.259194,51.603687 c 0.912591,-1.188205 1.952964,-2.242851 2.929106,-3.375207 1.70284,-1.975395 3.392766,-3.879082 5.270512,-5.691804 -2.124472,-0.830237 -6.518302,-1.86925 -8.773047,-1.791766 -0.793533,0.0273 -1.556594,0.21648 -2.318069,0.42673 q 0.373374,-1.142892 0.858897,-2.242851 c 2.531037,-0.619647 6.517282,0.441683 9.033366,1.088517 1.03369,0.265757 2.070097,0.510218 3.087248,0.835334 0.06797,-1.550024 0.207983,-3.080676 0.369635,-4.62345 -1.166227,-0.406113 -2.450947,-0.626331 -3.663847,-0.848702 -2.274456,-0.416987 -4.662872,-0.903302 -6.980602,-0.590307 0.339843,-0.731229 0.82933,-1.421223 1.258099,-2.103062 3.26759,-0.02515 6.51615,0.770651 9.705576,1.38554 0.633694,-2.394534 1.00299,-4.839704 1.68143,-7.230386 0.500702,-1.764805 2.839162,-9.127843 3.924507,-10.198009 0.673796,-0.664393 2.735396,-1.752684 3.620008,-2.246249 z"
     id="path5"
     style="stroke-width:0.113281" />
  <path
     fill="#cbcbcb"
     d="M 6.10352e-5,0 H 2.4486978 5.2973865 11.13052 h 2.473456 4.580404 4.024534 c -0.06004,2.1125547 -0.428428,4.0525258 -0.942044,6.0991623 1.96973,0.2745705 4.720192,0.1434251 6.781793,0.1366056 3.082716,-0.010184 6.155463,-0.1817594 9.234894,-0.2263581 1.849199,-0.02678 3.691828,0.050671 5.54012,0.062667 1.141533,0.00741 2.2953,-0.042118 3.434794,0.00179 -0.149758,0.099925 -0.336671,0.056844 -0.516675,0.080192 0.505347,0.1224794 1.195681,-0.024265 1.722664,-0.037303 1.62343,-0.040147 3.252411,-0.010626 4.876181,0.0082 0.565159,0.00656 1.1532,-0.047 1.713602,-0.019586 0.140581,0.00689 0.255335,-0.00373 0.354569,0.098792 l -0.01722,0.1509696 C 54.049598,6.5180415 52.822085,6.5367782 52.362051,6.5961487 51.523772,6.7043434 45.904807,7.536483 45.473547,7.8895006 l 0.03931,0.046264 -0.04577,0.018827 C 44.434873,8.3676823 43.29368,8.6194267 42.225327,8.9423795 Q 39.843141,9.6560611 37.569365,10.66331 C 25.481376,15.997769 16.025471,25.248409 10.735599,37.398136 8.300058,42.992065 6.8428565,47.433247 6.2168997,53.542831 6.0471141,52.702399 6.0743808,51.775987 6.0599262,50.920036 L 5.9994794,47.535313 C 5.931171,44.123063 5.7028984,40.690535 5.8117615,37.280777 5.870645,35.436562 6.0100939,33.596426 6.0830468,31.752891 q 0.090613,-2.723049 0.1047736,-5.447457 C 6.211768,24.644621 6.3325596,22.906438 6.0655109,21.260805 4.0226127,21.793452 2.1104521,22.061588 6.10352e-5,22.137939 V 19.838562 18.290577 16.685045 12.849804 10.804798 5.8337789 3.5138973 Z"
     id="path6"
     style="stroke-width:0.113281" />
  <path
     fill="#ffffff"
     d="M 6.10352e-5,16.685045 C 1.6628902,17.42443 3.2823667,18.030484 5.0447925,18.486893 4.80637,19.012856 3.8810001,19.130442 3.4371878,19.478441 3.1004487,19.69005 0.55239427,19.816698 6.10352e-5,19.838562 v -1.547985 z"
     id="path7"
     style="stroke-width:0.113281" />
  <path
     fill="#151c29"
     d="M 6.10352e-5,18.290577 C 0.73011177,18.576498 1.4673445,18.826736 2.2133339,19.067684 2.6003584,19.192633 3.0798203,19.292094 3.4371878,19.478441 3.1004487,19.69005 0.55239427,19.816698 6.10352e-5,19.838562 Z"
     id="path8"
     style="stroke-width:0.113281" />
  <path
     fill="#464c58"
     d="m 13.603976,0 h 4.580404 c 0.529136,0.88810038 0.965268,1.8099019 1.402079,2.7455463 C 19.413932,4.2811382 18.836539,5.7134972 18.736852,7.136771 17.678807,5.9941848 17.002859,4.5583821 16.149627,3.2675791 15.391211,2.1202125 14.484849,1.0538044 13.603976,0 Z"
     id="path9"
     style="stroke-width:0.113281" />
  <path
     fill="#464c58"
     d="M 6.10352e-5,0 H 2.4486978 5.2973865 11.13052 c 2.473343,2.5353874 5.009818,5.3608874 6.255116,8.7294339 l -0.0196,0.061217 c -0.143867,0.4605779 -0.207757,0.9417276 -0.377679,1.3940251 -0.3608,0.960453 -1.318817,1.463556 -1.963952,2.212117 -0.169469,0.496397 -0.687956,1.151161 -1.056685,1.521251 0.02243,0.08337 0.05879,0.123816 0.01416,0.20198 -0.194957,0.341202 -0.457542,0.670283 -0.722053,0.960509 -0.353211,0.134918 -1.694571,0.490167 -1.989283,0.359554 -0.236462,0.394671 -0.541811,1.206669 -0.933288,1.424622 -0.295867,0.129593 -0.4431438,0.173773 -0.7535791,0.05494 -0.017264,-0.0066 -0.034369,-0.01359 -0.051566,-0.02039 -0.2855021,0.334405 -1.073462,0.542842 -1.477524,0.85867 -0.6894395,0.376772 -1.536147,0.675041 -2.2890126,0.889709 L 5.0447925,18.486893 C 3.2823667,18.030484 1.6628902,17.42443 6.10352e-5,16.685045 V 12.849804 10.804798 5.8337789 3.5138973 Z"
     id="path10"
     style="stroke-width:0.113281" />
  <path
     fill="#ffffff"
     d="M 6.10352e-5,3.5138973 C 4.2248986,6.9229757 8.1810902,10.966314 11.270546,15.440087 11.034084,15.834758 10.728735,16.646756 10.337258,16.864709 9.9599984,16.421667 9.6292179,15.91077 9.280607,15.443259 Q 8.5015395,14.395183 7.6479219,13.406806 C 5.3066755,10.659244 2.7155765,8.2031303 6.10352e-5,5.8337789 Z"
     id="path11"
     style="stroke-width:0.113281" />
  <path
     fill="#ffffff"
     d="M 2.4486978,0 H 5.2973865 C 8.8358544,3.2289276 13.235473,7.8854904 15.024407,12.396793 14.854938,12.89319 14.336451,13.547954 13.967722,13.918044 13.562629,13.077838 13.156063,12.235707 12.676998,11.434697 10.139809,7.1921087 6.2564574,3.1141627 2.4486978,0 Z"
     id="path12"
     style="stroke-width:0.113281" />
  <path
     fill="#464c58"
     d="M 5.2973865,0 H 11.13052 c 2.473343,2.5353874 5.009818,5.3608874 6.255116,8.7294339 l -0.0196,0.061217 c -0.143867,0.4605779 -0.207757,0.9417276 -0.377679,1.3940251 -0.3608,0.960453 -1.318817,1.463556 -1.963952,2.212117 C 13.235473,7.8854904 8.8358544,3.2289276 5.2973865,0 Z"
     id="path13"
     style="stroke-width:0.113281" />
  <path
     fill="#464c58"
     d="M 6.10352e-5,5.8337789 C 2.7155765,8.2031303 5.3066755,10.659244 7.6479219,13.406806 q 0.8536176,0.988377 1.6326851,2.036453 c 0.3486109,0.467511 0.6793914,0.978408 1.056651,1.42145 -0.295867,0.129593 -0.4431438,0.173773 -0.7535791,0.05494 -0.017264,-0.0066 -0.034369,-0.01359 -0.051566,-0.02039 -0.2855021,0.334405 -1.073462,0.542842 -1.477524,0.85867 -0.6894395,0.376772 -1.536147,0.675041 -2.2890126,0.889709 L 5.0447925,18.486893 C 3.2823667,18.030484 1.6628902,17.42443 6.10352e-5,16.685045 v -3.835241 -2.045006 z"
     id="path14"
     style="stroke-width:0.113281" />
  <path
     fill="#ffffff"
     d="M 6.10352e-5,10.804798 C 3.0250489,13.08962 6.0524043,15.349576 9.5321134,16.89926 9.2466113,17.233665 8.4586514,17.442102 8.0545894,17.75793 5.1463942,16.478307 2.5637007,14.70478 6.10352e-5,12.849804 Z"
     id="path15"
     style="stroke-width:0.113281" />
  <path
     fill="#151c29"
     d="M 6.10352e-5,12.849804 C 2.5637007,14.70478 5.1463942,16.478307 8.0545894,17.75793 7.3651499,18.134702 6.5184424,18.432971 5.7655768,18.647639 L 5.0447925,18.486893 C 3.2823667,18.030484 1.6628902,17.42443 6.10352e-5,16.685045 Z"
     id="path16"
     style="stroke-width:0.113281" />
  <defs
     id="defs17">
    <linearGradient
       id="gradient_1"
       gradientUnits="userSpaceOnUse"
       x1="713.60565"
       y1="737.92731"
       x2="1027.2332"
       y2="1000.033"
       gradientTransform="matrix(0.113281,0,0,0.113281,6.10352e-5,0)">
      <stop
         offset="0"
         stop-color="#B8B8BA"
         id="stop16" />
      <stop
         offset="1"
         stop-color="#EDECEB"
         id="stop17" />
    </linearGradient>
  </defs>
  <path
     fill="url(#gradient_1)"
     d="m 109.85057,62.988654 c 0.24469,0.62769 0.18295,6.049998 0.17627,7.082555 -0.008,1.236122 -0.0124,2.486518 0.0536,3.721167 0.0716,1.341474 0.2141,2.643412 0.1774,3.992249 -0.0582,2.131722 -0.21897,4.257893 -0.30042,6.388256 -0.07,1.830281 -0.0629,3.654671 -0.0804,5.485292 -0.0168,1.743961 -0.0992,3.535274 0.11611,5.270172 2.04098,-0.607073 3.87138,-0.970705 6.00673,-1.024626 v 2.387623 2.474057 1.685171 4.71419 1.97437 4.69663 2.20649 1.95749 h -4.80391 -3.15544 -6.7477 -2.507589 -2.368366 -2.504529 q -0.0075,-1.88499 0.257261,-3.75209 c 0.05392,-0.39478 0.380851,-1.87854 0.297816,-2.16435 -0.835448,-0.60718 -14.674081,-0.17014 -16.991811,-0.21953 -2.144635,-0.0458 -4.280775,-0.19995 -6.423372,-0.28649 -1.019416,-0.0412 -2.107706,-0.13152 -3.123497,-0.0374 -1.338189,-0.012 -2.674451,0.0657 -4.01264,0.0638 -1.352688,-0.002 -2.743892,-0.0879 -4.09103,-0.0122 -0.641057,-0.089 -1.293216,-0.0197 -1.937671,-0.07 l -0.04973,-0.0763 c 0.719561,0.006 1.473786,-0.10988 2.188816,-0.1885 1.322216,-0.14557 2.64126,-0.32172 3.942405,-0.60266 1.620825,-0.34992 3.20404,-0.8206 4.81297,-1.21301 0.54137,-0.13197 1.097353,-0.1911 1.640875,-0.31186 0.656124,-0.14568 1.306357,-0.37179 1.976641,-0.44078 0.902736,-0.0928 1.666136,0.14138 2.604103,-0.0812 0.912592,-0.21659 1.828809,-0.65057 2.700053,-1.00197 q 0.883705,-0.35434 1.752797,-0.74335 0.868978,-0.38901 1.721984,-0.81211 0.852893,-0.42322 1.688453,-0.87974 0.835561,-0.45652 1.652317,-0.94579 0.816756,-0.48926 1.613575,-1.01058 0.796818,-0.5212 1.57234,-1.07356 0.775522,-0.552357 1.528614,-1.134961 0.753092,-0.582605 1.482508,-1.194549 c 7.112688,-5.895936 11.948657,-12.779116 15.439297,-21.309175 0.31016,-0.757963 0.56821,-1.534618 0.85572,-2.30119 0.57637,-1.536431 1.13791,-3.04556 1.56928,-4.632061 0.35559,-1.307829 0.59167,-2.671166 0.83432,-4.00437 0.15429,-0.847342 0.35604,-1.717906 0.4359,-2.57499 z"
     id="path17"
     style="fill:url(#gradient_1);stroke-width:0.113281" />
  <path
     fill="#151c29"
     d="m 115.99981,96.291342 v 2.474057 c -0.98668,-0.407585 -4.71261,-1.715754 -5.66768,-1.538582 l -0.12404,-0.01733 c 1.42349,-0.645815 4.23184,-0.813358 5.79172,-0.918143 z"
     id="path18"
     style="stroke-width:0.113281" />
  <path
     fill="#ffffff"
     d="m 110.33213,97.226817 c 0.95507,-0.177172 4.681,1.130997 5.66768,1.538582 v 1.685171 c -2.0402,-0.886313 -4.16999,-1.525218 -6.28427,-2.207849 0.24559,-0.299062 0.50637,-0.641511 0.61659,-1.015904 z"
     id="path19"
     style="stroke-width:0.113281" />
  <path
     fill="#464c58"
     d="m 107.80664,98.120037 c 0.66734,-0.04848 1.25595,-0.02345 1.9089,0.122684 2.11428,0.682631 4.24407,1.321536 6.28427,2.207849 v 4.71419 c -2.50578,-1.37478 -5.07126,-2.49139 -7.76123,-3.45451 -0.57501,-0.20594 -3.20834,-0.84032 -3.48021,-1.15558 -0.0843,-0.0978 -0.11238,-0.21602 -0.0953,-0.34165 0.0113,-0.0832 0.0152,-0.15826 0.0735,-0.223166 0.50965,-0.567878 2.25837,-1.229326 3.01032,-1.821899 z"
     id="path20"
     style="stroke-width:0.113281" />
  <path
     fill="#464c58"
     d="m 102.87903,101.89649 c 4.56761,0.73972 9.14371,2.95176 13.12078,5.24264 v 4.69663 c -2.9367,-1.94923 -5.96176,-3.80182 -9.14167,-5.33078 q -1.13168,-0.54465 -2.29632,-1.01477 c -0.65363,-0.25737 -2.83168,-0.9613 -3.25977,-1.282 -0.116,-0.0869 -0.17151,-0.17638 -0.19745,-0.31922 0.13537,-0.65851 1.259,-1.55581 1.77443,-1.9925 z"
     id="path21"
     style="stroke-width:0.113281" />
  <path
     fill="#464c58"
     d="m 99.46531,105.43391 c 3.90944,0.33543 13.16325,6.06178 16.5345,8.60834 v 1.95749 h -4.80391 -3.15544 -6.7477 -2.507589 -2.368366 c 0.0119,-0.43273 -0.06072,-1.23249 0.161766,-1.59386 0.06242,-0.54262 -0.138203,-1.3792 0.128347,-1.8526 0.01144,-0.5357 0.541936,-1.96395 0.723979,-2.53613 0.289319,0.20107 0.582151,0.39252 0.923693,0.49016 -0.07839,-0.0811 -0.188046,-0.13367 -0.262245,-0.21682 -0.170262,-0.19042 0.146359,-0.62882 0.146812,-0.88789 3.4e-4,-0.17638 -0.02538,-0.37507 0.08054,-0.52506 0.189858,0.0129 0.287507,0.14477 0.445987,0.24525 0.162105,0.10264 0.278784,0.19949 0.467511,0.15894 l -0.06072,-0.0494 c -0.274593,-0.21909 -0.88144,-0.39671 -0.940572,-0.77926 -0.09289,-0.60028 0.877248,-2.4829 1.233403,-3.01917 z"
     id="path22"
     style="stroke-width:0.113281" />
  <path
     fill="#ffffff"
     d="m 98.35459,110.50731 c -0.07839,-0.0811 -0.188046,-0.13367 -0.262245,-0.21682 -0.170262,-0.19042 0.146359,-0.62882 0.146812,-0.88789 3.4e-4,-0.17638 -0.02538,-0.37507 0.08054,-0.52506 0.189858,0.0129 0.287507,0.14477 0.445987,0.24525 0.162105,0.10264 0.278784,0.19949 0.467511,0.15894 1.864385,0.98124 3.777695,1.87593 5.628365,2.88051 q 3.24732,1.78599 6.33434,3.8375 h -3.15544 c -2.01561,-1.42281 -4.27466,-2.66776 -6.45623,-3.81791 -0.78504,-0.41392 -2.675586,-1.22332 -3.229643,-1.67452 z"
     id="path23"
     style="stroke-width:0.113281" />
  <path
     fill="#464c58"
     d="m 97.430897,110.01715 c 0.289319,0.20107 0.582151,0.39252 0.923693,0.49016 0.554057,0.4512 2.4446,1.2606 3.22964,1.67452 2.18157,1.15015 4.44062,2.3951 6.45623,3.81791 h -6.7477 -2.507589 -2.368366 c 0.0119,-0.43273 -0.06072,-1.23249 0.161766,-1.59386 0.06242,-0.54262 -0.138203,-1.3792 0.128347,-1.8526 0.01144,-0.5357 0.541936,-1.96395 0.723979,-2.53613 z"
     id="path24"
     style="stroke-width:0.113281" />
  <path
     fill="#ffffff"
     d="m 96.706918,112.55328 c 1.409329,1.26694 3.016786,2.38842 4.585842,3.44646 h -2.507589 -2.368366 c 0.0119,-0.43273 -0.06072,-1.23249 0.161766,-1.59386 0.06242,-0.54262 -0.138203,-1.3792 0.128347,-1.8526 z"
     id="path25"
     style="stroke-width:0.113281" />
  <path
     fill="#151c29"
     d="m 96.578571,114.40588 c 0.736779,0.53016 1.458492,1.07957 2.2066,1.59386 h -2.368366 c 0.0119,-0.43273 -0.06072,-1.23249 0.161766,-1.59386 z"
     id="path26"
     style="stroke-width:0.113281" />
  <path
     fill="#cbcbcb"
     d="m 22.208914,0 h 71.698944 2.515404 2.359757 2.520951 6.75019 3.13381 4.81184 v 3.5309801 2.3227363 4.9685386 2.032873 3.839093 1.603606 1.546172 2.294507 c -1.5361,0.006 -4.6656,-0.180344 -6.04468,-0.694526 -0.1774,3.090872 -0.059,6.145154 -0.0749,9.23512 0.13469,1.084892 0.13005,2.212152 0.18023,3.304973 0.0928,2.023992 0.21807,4.084573 0.13605,6.109924 -0.0391,0.966741 -0.16992,1.930535 -0.25918,2.893537 -0.0441,0.475894 -0.0512,0.953599 -0.10955,1.428247 3.4e-4,0.657596 0.0812,5.634823 -0.0621,5.861725 l -0.0308,0.0062 c -0.29407,-1.627962 -0.8325,-3.208798 -1.2283,-4.814556 -0.27845,-1.398341 -0.95236,-2.553014 -1.485,-3.850535 -0.35027,-0.853345 -0.63234,-1.734445 -0.97717,-2.590623 q -1.05849,-2.574877 -2.34956,-5.041231 c -0.68795,-1.283927 -1.39913,-2.584846 -2.18122,-3.813945 q -0.22011,-0.346639 -0.44588,-0.689654 -0.22577,-0.343015 -0.45697,-0.682292 -0.23121,-0.33939 -0.46797,-0.674928 Q 99.9062,27.790435 99.664118,27.458748 99.422037,27.127061 99.174745,26.799339 98.927339,26.471617 98.674722,26.14786 98.421992,25.824103 98.164165,25.504537 97.906337,25.184972 97.643412,24.869597 97.380487,24.554223 97.112464,24.24304 96.844441,23.931971 96.571434,23.625206 96.29854,23.318441 96.020548,23.016207 95.74267,22.71386 95.459921,22.416158 95.177171,22.118342 94.889664,21.825171 94.602157,21.531999 94.310005,21.243473 94.01774,20.955059 93.720944,20.67129 93.424148,20.387521 93.12282,20.108624 92.82138,19.829726 92.515634,19.555699 92.209776,19.281672 91.899612,19.01263 q -0.310277,-0.269042 -0.624745,-0.5331 -0.314468,-0.264058 -0.63324,-0.522906 -0.31866,-0.25896 -0.641624,-0.512596 -0.322851,-0.25375 -0.649666,-0.502288 -0.326929,-0.248425 -0.657823,-0.49164 -0.330894,-0.243214 -0.665639,-0.480991 -0.334746,-0.237777 -0.673343,-0.470116 -0.338483,-0.232452 -0.680818,-0.459354 -0.342222,-0.226789 -0.688069,-0.44814 -0.345847,-0.221351 -0.695319,-0.437038 -0.349359,-0.2158 -0.702229,-0.425823 -0.352757,-0.210023 -0.708912,-0.414382 -0.356269,-0.204359 -0.715597,-0.402941 -0.35944,-0.198581 -0.722053,-0.391272 C 80.342798,11.393803 78.232373,10.364713 75.990202,9.5518879 73.86675,8.7821209 71.610192,8.3046414 69.417525,7.7633508 68.826991,7.6175808 68.196922,7.5345572 67.618849,7.3543724 l -0.08677,-0.027663 0.0682,-0.038833 c -0.157355,-0.081392 -0.34982,-0.065103 -0.52212,-0.094567 -0.492886,-0.084315 -2.158343,-0.3041935 -2.485838,-0.4269334 -0.01133,-0.1371833 -0.03568,-0.3612191 0.02572,-0.4894079 0.172753,-0.3608793 1.242579,-0.077099 1.626601,-0.196973 -0.394331,-0.1173478 -4.1684,0.024616 -5.041684,-0.028796 Q 53.730485,5.920269 46.258471,6.0738667 c -1.139494,-0.043908 -2.293261,0.00562 -3.434794,-0.00179 -1.848292,-0.011996 -3.690921,-0.089447 -5.54012,-0.062667 -3.079431,0.044599 -6.152178,0.2161741 -9.234894,0.2263581 C 25.987062,6.2425874 23.2366,6.3737328 21.26687,6.0991623 21.780486,4.0525258 22.148875,2.1125547 22.208914,0 Z"
     id="path27"
     style="stroke-width:0.113281" />
  <path
     fill="#99999c"
     d="m 97.208866,5.6921663 c 0.894807,2.2695622 1.801168,4.3989387 3.427884,6.2510497 -0.0825,-0.01246 -0.18182,-0.02243 -0.26032,-0.0495 -0.437605,-0.15157 -1.249037,-1.17802 -1.495763,-1.579636 -0.338597,-0.551089 -1.617313,-3.3072837 -1.758008,-3.9719146 -0.04248,-0.2008925 0.03954,-0.4531693 0.08621,-0.6499951 z"
     id="path28"
     style="stroke-width:0.113281" />
  <path
     fill="#99999c"
     d="m 109.8278,44.415781 c -0.0379,-0.571389 -0.12053,-1.144138 -0.12676,-1.716434 -0.009,-0.820494 0.0654,-1.64382 0.0894,-2.464088 0.0353,-1.202591 0.0233,-2.411526 0.0232,-3.61491 -1.1e-4,-1.448751 -0.13763,-2.89297 -0.1024,-4.342627 0.0115,-0.477253 -0.0406,-1.175064 0.16901,-1.598622 0.13469,1.084892 0.13005,2.212152 0.18023,3.304973 0.0928,2.023992 0.21807,4.084573 0.13605,6.109924 -0.0391,0.966741 -0.16992,1.930535 -0.25918,2.893537 -0.0441,0.475894 -0.0512,0.953599 -0.10955,1.428247 z"
     id="path29"
     style="stroke-width:0.113281" />
  <path
     fill="#151c29"
     d="M 97.208866,5.6921663 C 96.881371,4.8250343 96.603379,3.9755627 96.50018,3.0505327 l 0.06151,0.054703 c 0.630522,0.5667788 1.147763,1.308101 1.678598,1.9668187 q 0.84281,1.0503754 1.786782,2.0107831 c 4.32654,4.4142775 10.25148,8.8640685 15.97274,11.2149895 v 1.546172 c -0.47125,0.0247 -0.95157,0.01121 -1.42168,-0.01994 -3.28119,-0.217387 -7.19527,-1.747586 -9.79813,-3.773277 -1.51638,-1.180162 -2.88028,-2.664256 -4.14325,-4.107569 -1.626718,-1.852111 -2.533079,-3.9814879 -3.427886,-6.2510501 z"
     id="path30"
     style="stroke-width:0.113281" />
  <path
     fill="#464c58"
     d="m 96.423262,0 h 2.359757 2.520951 6.75019 3.13381 4.81184 v 3.5309801 2.3227363 4.9685386 2.032873 3.839093 q -1.45,-0.668924 -2.84562,-1.444899 -1.39563,-0.775862 -2.72906,-1.654356 c -1.78508,-1.173365 -3.48123,-2.498752 -5.1425,-3.8398973 -3.1414,-2.5360331 -6.735009,-5.5442553 -8.873868,-9.0122444 z"
     id="path31"
     style="stroke-width:0.113281" />
  <path
     fill="#ffffff"
     d="m 98.783019,0 h 2.520951 q 5.8461,3.9409667 11.39483,8.2906399 c 1.08749,0.844963 2.25655,1.6388362 3.30101,2.5316151 v 2.032873 C 110.21194,8.6347423 104.59094,4.195815 98.783019,0 Z"
     id="path32"
     style="stroke-width:0.113281" />
  <path
     fill="#464c58"
     d="m 101.30397,0 h 6.75019 3.13381 4.81184 V 3.5309801 5.8537164 10.822255 C 114.95535,9.9294761 113.78629,9.1356029 112.6988,8.2906399 Q 107.15007,3.940978 101.30397,0 Z"
     id="path33"
     style="stroke-width:0.113281" />
  <path
     fill="#ffffff"
     d="m 108.05416,0 h 3.13381 4.81184 V 3.5309801 5.8537164 C 113.51782,3.6917145 110.81595,1.7821707 108.05416,0 Z"
     id="path34"
     style="stroke-width:0.113281" />
  <path
     fill="#464c58"
     d="m 111.18797,0 h 4.81184 V 3.5309801 Q 113.68887,1.6365253 111.18797,0 Z"
     id="path35"
     style="stroke-width:0.113281" />
  <path
     fill="#464c58"
     d="m 22.208914,0 h 71.698944 c 0.09969,2.0990856 0.422651,4.0691555 0.855498,6.1206064 -1.644387,0.2157324 -3.377247,0.15012 -5.036473,0.1611536 Q 86.181527,6.321193 82.636851,6.240594 c -1.841382,-0.05894 -3.679027,-0.1974147 -5.519843,-0.2651115 -1.106076,-0.040668 -2.208413,0.020175 -3.314262,0.019677 l -6.718583,-0.00161 -3.811679,0.013209 c -0.676628,0.00231 -1.400153,-0.042514 -2.069531,0.04444 Q 53.730485,5.920269 46.258471,6.0738667 c -1.139494,-0.043908 -2.293261,0.00562 -3.434794,-0.00179 -1.848292,-0.011996 -3.690921,-0.089447 -5.54012,-0.062667 -3.079431,0.044599 -6.152178,0.2161741 -9.234894,0.2263581 C 25.987062,6.2425874 23.2366,6.3737328 21.26687,6.0991623 21.780486,4.0525258 22.148875,2.1125547 22.208914,0 Z"
     id="path36"
     style="stroke-width:0.113281" />
  <defs
     id="defs37">
    <linearGradient
       id="gradient_2"
       gradientUnits="userSpaceOnUse"
       x1="304.04935"
       y1="724.43817"
       x2="12.089671"
       y2="872.79236"
       gradientTransform="matrix(0.113281,0,0,0.113281,6.10352e-5,0)">
      <stop
         offset="0"
         stop-color="#BCBEC1"
         id="stop36" />
      <stop
         offset="1"
         stop-color="#E0DEDD"
         id="stop37" />
    </linearGradient>
  </defs>
  <path
     fill="url(#gradient_2)"
     d="m 6.3233045,61.852785 q 0.049028,0.563234 0.1101771,1.125221 0.061138,0.561987 0.1343739,1.122614 0.073236,0.560628 0.1585255,1.119443 0.085278,0.558815 0.1825863,1.115818 0.097297,0.556889 0.2065792,1.111513 0.1092709,0.554737 0.2304589,1.106869 0.121188,0.552245 0.2542478,1.101657 0.1330486,0.549527 0.2779123,1.095994 0.1448524,0.546468 0.3014408,1.08965 0.1565883,0.543183 0.3248446,1.082966 0.1682449,0.539671 0.3480898,1.075717 0.1798336,0.535932 0.3711652,1.0679 0.1913316,0.531967 0.394082,1.059744 0.202739,0.527662 0.4168061,1.050907 0.214067,0.523245 0.439349,1.041732 0.225282,0.518601 0.461677,1.032104 0.236395,0.513502 0.483846,1.021908 0.247292,0.508291 0.505573,1.011146 0.258394,0.502967 0.527436,1.000158 0.269042,0.49719 0.548733,0.98849 0.279691,0.491299 0.569917,0.976482 0.290226,0.485182 0.59076,0.963908 0.300648,0.478839 0.611491,0.951107 0.310843,0.472155 0.631768,0.937514 0.320925,0.465471 0.651819,0.92392 0.330894,0.458335 0.67153,0.909533 0.340749,0.451085 0.691014,0.894806 0.350265,0.443722 0.710045,0.879854 0.359781,0.436019 0.728964,0.864334 0.369069,0.428202 0.747314,0.848361 0.378246,0.42016 0.76544,0.832163 0.387194,0.411889 0.783112,0.815396 c 1.455207,1.496442 3.05111,2.842787 4.642935,4.189358 3.503894,2.964228 7.699143,5.263378 11.867091,7.148828 0.784131,0.35468 1.57959,0.65771 2.390455,0.94578 0.42707,0.15168 0.997439,0.28796 1.387239,0.5101 4.517873,1.51808 8.411908,2.38378 13.19735,2.59267 1.070052,0.0468 2.132855,-0.04 3.198149,-0.0134 l 0.04973,0.0763 c 0.644455,0.0503 1.296614,-0.019 1.937671,0.07 1.347138,-0.0757 2.738342,0.0103 4.09103,0.0122 1.338189,0.002 2.674451,-0.0758 4.01264,-0.0638 1.015791,-0.0941 2.104081,-0.004 3.123497,0.0374 2.142597,0.0865 4.278737,0.24072 6.423372,0.28649 2.31773,0.0494 16.156363,-0.38765 16.991811,0.21953 0.08303,0.28581 -0.243894,1.76957 -0.297816,2.16435 q -0.264738,1.8671 -0.257261,3.75209 H 22.205063 19.939669 19.892431 18.188572 13.596386 11.143366 5.296922 2.4697001 6.10352e-5 v -1.94616 -2.22801 -4.69403 -1.97109 -4.71645 -1.691175 -2.463409 -2.390569 C 2.0389038,93.894996 4.181444,94.060613 6.0966066,94.812345 6.270323,92.85485 6.2092305,90.860764 6.1897802,88.897718 q -0.00982,-3.429129 -0.089458,-6.857465 c -0.050048,-1.821446 -0.1637477,-3.644364 -0.179641,-5.466375 -0.00826,-0.947482 0.067595,-1.895418 0.082435,-2.8429 0.021387,-1.366396 0.039365,-11.373186 0.3201883,-11.878193 z"
     id="path37"
     style="fill:url(#gradient_2);stroke-width:0.113281" />
  <defs
     id="defs39">
    <linearGradient
       id="gradient_3"
       gradientUnits="userSpaceOnUse"
       x1="454.59879"
       y1="981.11188"
       x2="428.90121"
       y2="951.38812"
       gradientTransform="matrix(0.113281,0,0,0.113281,6.10352e-5,0)">
      <stop
         offset="0"
         stop-color="#5B6373"
         id="stop38" />
      <stop
         offset="1"
         stop-color="#889194"
         id="stop39" />
    </linearGradient>
  </defs>
  <path
     fill="url(#gradient_3)"
     d="m 41.442102,106.86578 c 4.517873,1.51808 8.411908,2.38378 13.19735,2.59267 1.070052,0.0468 2.132855,-0.04 3.198149,-0.0134 l 0.04973,0.0763 c 0.644455,0.0503 1.296614,-0.019 1.937671,0.07 -0.441229,0.0495 -0.915877,0.0187 -1.360731,0.0236 q -1.449884,0.0272 -2.899767,-10e-4 -2.788299,-0.028 -5.576711,-0.005 c -2.362475,-0.0471 -4.749079,-0.0179 -7.110648,0.0624 -0.797158,0.0271 -1.590918,0.10932 -2.387624,0.14375 -1.126013,0.0486 -2.284877,0.0332 -3.411457,-0.007 0.701323,-0.26111 1.873101,-0.027 2.632197,-0.0449 1.381122,-0.0325 2.769268,-0.16618 4.152429,-0.2218 0.797385,-0.0319 1.612555,0.0369 2.404729,-0.0315 0.483596,-0.0417 1.468915,-0.27777 1.797203,-0.66802 -0.321718,-0.18431 -0.920748,-0.22736 -1.293216,-0.31719 -0.913951,-0.22044 -4.767884,-1.1694 -5.256012,-1.5908 -0.02503,-0.0217 -0.04882,-0.045 -0.07329,-0.0674 z"
     id="path39"
     style="fill:url(#gradient_3);stroke-width:0.113281" />
  <path
     fill="#464c58"
     d="m 6.10352e-5,96.289416 c 3.3535933648,-0.029 6.2203843648,0.797612 9.1836000648,2.3388 0.9773209,0.508292 1.8909429,1.001177 2.6829249,1.780894 1.078321,1.06144 2.124245,2.15607 3.203246,3.21763 0.514749,0.50637 1.377158,1.19376 1.761973,1.74294 0.271535,0.38765 0.290566,0.90228 0.544768,1.31655 0.425937,0.6943 0.694753,1.37014 1.006162,2.11417 0.721487,1.72402 1.195908,3.35799 1.4014,5.22599 0.07216,0.65703 0.08904,1.31746 0.155534,1.97335 H 19.892429 18.18857 C 14.89538,109.24808 6.6572342,103.44991 6.10352e-5,100.444 v -1.691175 z"
     id="path40"
     style="stroke-width:0.113281" />
  <path
     fill="#ffffff"
     d="M 6.10352e-5,98.752825 C 6.4512441,101.3661 12.686287,105.56169 16.898414,111.16944 q 0.941705,1.26546 1.708618,2.64398 c 0.401921,0.71707 0.766346,1.54629 1.285399,2.18632 H 18.188572 C 14.89538,109.24808 6.6572342,103.44991 6.10352e-5,100.444 Z"
     id="path41"
     style="stroke-width:0.113281" />
  <path
     fill="#464c58"
     d="M 6.10352e-5,100.444 C 6.6572342,103.44991 14.89538,109.24808 18.188572,115.99974 H 13.596386 11.143366 5.296922 2.4697001 6.10352e-5 v -1.94616 -2.22801 -4.69403 -1.97109 z"
     id="path42"
     style="stroke-width:0.113281" />
  <path
     fill="#ffffff"
     d="m 6.10352e-5,105.16045 q 0.9575880848,0.5254 1.8918153648,1.09135 0.9342284,0.56584 1.8433877,1.17121 0.9091593,0.60538 1.791573,1.24915 0.882425,0.64367 1.7364845,1.32448 0.8540707,0.68094 1.678224,1.39778 0.8241419,0.71673 1.6168594,1.46812 0.792752,0.75151 1.552528,1.53654 0.759889,0.78391 1.485453,1.60066 h -2.45302 C 7.6921695,112.50797 4.23344,109.65068 6.10352e-5,107.13154 Z"
     id="path43"
     style="stroke-width:0.113281" />
  <path
     fill="#464c58"
     d="M 6.10352e-5,107.13154 C 4.23344,109.65068 7.6921695,112.50797 11.143366,115.99974 H 5.296922 2.4697001 6.10352e-5 v -1.94616 -2.22801 z"
     id="path44"
     style="stroke-width:0.113281" />
  <path
     fill="#ffffff"
     d="M 6.10352e-5,111.82557 C 1.8783393,113.11108 3.6082421,114.47385 5.296922,115.99974 H 2.4697001 6.10352e-5 v -1.94616 z"
     id="path45"
     style="stroke-width:0.113281" />
  <path
     fill="#464c58"
     d="M 6.10352e-5,114.05358 Q 1.2521219,115.00514 2.4697001,115.99974 H 6.10352e-5 Z"
     id="path46"
     style="stroke-width:0.113281" />
  <path
     fill="#464c58"
     d="m 67.928673,109.53989 c 1.015791,-0.0941 2.104081,-0.004 3.123497,0.0374 2.142597,0.0865 4.278737,0.24072 6.423372,0.28649 2.31773,0.0494 16.156363,-0.38765 16.991811,0.21953 0.08303,0.28581 -0.243894,1.76957 -0.297816,2.16435 q -0.264738,1.8671 -0.257261,3.75209 H 22.205063 q 0.0034,-0.76351 -0.03954,-1.52589 -0.04282,-0.76238 -0.131973,-1.52091 -0.08915,-0.75842 -0.224183,-1.50992 -0.135031,-0.75162 -0.315487,-1.49361 c 1.859167,-0.27369 3.847589,-0.133 5.724768,-0.1322 l 9.859412,-0.01 c 1.12658,0.0402 2.285444,0.0556 3.411457,0.007 0.796706,-0.0344 1.590466,-0.11667 2.387624,-0.14375 2.361569,-0.0803 4.748173,-0.10954 7.110648,-0.0624 q 2.788412,-0.0225 5.576711,0.005 1.449883,0.0287 2.899767,0.001 c 0.444854,-0.005 0.919502,0.0259 1.360731,-0.0236 1.347138,-0.0757 2.738342,0.0103 4.09103,0.0122 1.338189,0.002 2.674451,-0.0758 4.01264,-0.0638 z"
     id="path47"
     style="stroke-width:0.113281" />
  <path
     fill="#151c29"
     d="m 59.825003,109.59144 c 1.347138,-0.0757 2.738342,0.0103 4.09103,0.0122 1.338189,0.002 2.674451,-0.0758 4.01264,-0.0638 -0.672549,0.24288 -2.417983,-0.10693 -2.833498,0.22736 -0.04792,0.19824 -0.05324,0.40679 0.04916,0.59167 0.0095,0.017 0.02243,0.0318 0.03364,0.0477 l 0.06955,0.009 c 0.167769,0.0236 0.294871,0.0389 0.44123,0.13242 0.07805,0.14138 0.08847,0.1433 0.06095,0.30054 -0.302234,0.33689 -1.127826,0.34222 -1.553536,0.36816 -0.08111,0.005 -0.160859,0.004 -0.241968,0.003 -0.368163,-0.006 -0.713557,0.13185 -1.087837,0.11622 l -0.07918,0.10218 -0.05018,-0.10003 c 0.356042,0.0185 0.8794,0.0671 1.196474,0.22475 -0.330328,0.0812 -0.672097,-0.0459 -1.007182,-0.0501 -0.307105,-0.004 -0.54103,-0.25465 -0.82174,-0.0476 0.0239,-0.016 0.04747,-0.0322 0.07148,-0.0479 0.08802,-0.0577 0.04996,-0.0419 0.125629,-0.0631 -0.919389,0.0143 -1.850559,0.11691 -2.767682,0.0751 l 0.133785,0.0314 -0.0333,-0.007 0.08949,0.0366 -0.03285,0.0622 c -1.401739,-0.11838 -2.752502,-0.10716 -4.15492,-0.11679 -1.094748,-0.007 -2.188589,-0.0531 -3.284356,-0.0569 -0.937627,-0.003 -1.951152,-0.1237 -2.876205,0.0297 0.02662,0.004 0.05335,0.008 0.07998,0.0133 0.09572,0.0178 0.179891,0.0442 0.271308,0.0763 l 0.01235,0.0736 c -0.02594,-0.007 -0.05166,-0.015 -0.07805,-0.0198 -0.1143,-0.0214 -0.159273,10e-4 -0.266776,0.0172 -0.14466,0.0214 -3.928585,-0.14126 -4.038015,-0.1843 0.47646,-0.14806 2.438827,-0.15203 2.443924,-0.15701 l -0.06774,-0.007 c -0.184421,-0.0195 -0.308464,-0.0393 -0.470569,-0.12982 l -0.07601,-0.12031 c 0.07216,-0.1578 0.171168,-0.21444 0.332594,-0.27561 0.760568,-0.28807 1.600094,-0.32931 2.354319,-0.66371 0.174226,-0.0773 0.298835,-0.21003 0.463432,-0.29465 -0.283202,-0.0756 -0.64219,-0.0232 -0.937513,-0.0186 -0.794214,0.0126 -2.284199,0.11271 -3.005799,-0.01 1.053287,-0.0918 2.661991,0.116 3.594746,-0.10003 q 2.788412,-0.0225 5.576711,0.005 1.449883,0.0287 2.899767,0.001 c 0.444854,-0.005 0.919502,0.0259 1.360731,-0.0236 z"
     id="path48"
     style="stroke-width:0.113281" />
  <path
     fill="#ffffff"
     d="m 65.618987,10.479648 c 0.02096,0.0016 0.04203,0.0037 0.0631,0.0049 0.546921,0.03076 1.154107,-0.123272 1.697629,-0.20872 0.83726,-0.13161 1.683016,-0.264545 2.529565,-0.3147511 l -0.04327,0.059223 0.160745,-0.04623 c 0.225769,0.2949611 0.509425,0.6048871 0.673796,0.9363471 -0.356949,0.486429 -3.986019,0.561307 -4.509604,1.050002 l -0.07477,0.02435 c -0.78753,0.251257 -1.640196,0.387648 -2.444491,0.589514 -0.990642,0.248652 -1.974374,0.563913 -2.951763,0.860936 -2.591416,0.787643 -5.063434,1.799808 -7.581444,2.782974 -0.697245,0.272214 -1.464384,0.353437 -2.137159,0.672096 -0.920975,0.436132 -1.766957,1.110607 -2.615999,1.669876 q -2.746611,1.78882 -5.347656,3.783358 -2.601045,1.994426 -5.041231,4.182788 c -1.11038,0.978974 -2.12753,2.126171 -3.292739,3.03072 -0.476006,1.4577 -0.721146,3.923487 -0.892201,5.485406 -0.06752,0.617041 -0.08689,1.295481 -0.219765,1.899949 q 1.21188,0.262019 2.412319,0.572182 c 0.875549,-0.695545 1.694117,-1.470614 2.53976,-2.202522 1.795277,-1.553989 3.60732,-3.117947 5.464449,-4.596037 6.076959,-4.836759 12.501011,-9.061347 19.549015,-12.347969 2.552901,-1.19047 5.152247,-2.270264 7.861475,-3.05938 3.03865,-0.885178 6.033006,-1.389165 9.180406,-1.650504 0.758869,0.487221 1.589785,0.916556 2.312745,1.449544 -13.129382,0.178984 -29.226612,10.260426 -39.160449,18.471033 -1.53677,1.270107 -3.624539,2.860459 -4.958989,4.251776 q -0.23064,0.243554 -0.445421,0.501381 c 1.203837,0.29725 2.390342,0.741311 3.56416,1.141646 q 1.933707,0.650686 3.854046,1.339662 c 1.877973,0.694978 3.737027,1.443426 5.630292,2.097284 l 3.870926,-3.827425 c 0.747881,-0.725112 1.532691,-1.5302 2.372897,-2.14339 0.275726,-0.366351 0.769517,-0.715483 1.121821,-1.019302 q 1.661606,-1.411708 3.350966,-2.790225 c 1.871742,-1.777265 4.593884,-3.647308 6.751547,-5.086656 1.764465,-1.17699 3.527117,-2.385019 5.358871,-3.454505 4.450811,-2.598552 9.3808,-4.585614 14.45273,-5.540233 0.673909,0.415061 1.351216,0.919162 1.934953,1.455434 -0.980221,0.282183 -1.985136,0.435112 -2.971474,0.686369 -1.892359,0.481898 -3.806921,1.111174 -5.606503,1.869137 -8.861407,3.732042 -16.652081,9.672838 -23.740866,16.085222 q -1.44252,1.317458 -2.841427,2.681135 c -0.630069,0.610585 -1.340228,1.245525 -1.867664,1.948093 3.598258,1.555462 7.109402,3.100954 10.62825,4.833474 q 1.873214,0.913838 3.728417,1.863926 c 0.900018,0.46717 1.820992,1.021001 2.773912,1.37002 1.339888,-1.012279 2.483686,-2.274229 3.654219,-3.472402 4.860321,-4.975529 9.052398,-10.478833 12.797354,-16.333082 2.017082,-3.153176 3.953394,-6.380552 5.207981,-9.921263 0.377339,0.375527 0.759549,0.747202 1.119443,1.13972 q -0.524944,1.545833 -1.158978,3.050091 -0.633921,1.504372 -1.373872,2.95958 c -3.338165,6.602469 -8.720258,13.570724 -13.706774,19.036872 -1.481376,1.623883 -3.033439,3.162579 -4.563979,4.738091 1.054193,0.515202 2.060468,1.135075 3.073201,1.726176 q 4.198193,2.434522 8.109786,5.306988 c 0.890276,0.649893 1.852938,1.283134 2.668334,2.024898 0.495831,-0.660768 0.950428,-1.352689 1.426321,-2.027957 0.868526,-1.23227 1.749512,-2.471451 2.520503,-3.768519 3.863788,-6.499157 6.693208,-14.073351 7.117671,-21.664878 0.102406,-1.830621 0.13016,-3.669058 -0.128347,-5.488917 -0.08405,-0.59212 -0.204359,-1.183107 -0.268363,-1.777266 0.665526,0.947029 1.553083,1.988988 1.999637,3.052017 0.911229,2.168651 0.25171,6.927813 -0.155309,9.249167 -1.00265,5.717972 -3.175606,11.280295 -5.970588,16.353358 -0.423444,0.768612 -0.866713,1.54402 -1.340001,2.283066 -0.379944,0.593139 -0.816983,1.146064 -1.139833,1.77432 1.200212,-0.823893 2.439393,-1.578911 3.653425,-2.38094 4.20635,-2.77867 8.900265,-6.03312 12.119485,-9.958193 0.73927,-0.901264 1.48318,-1.861547 1.86358,-2.976685 l 0.14206,0.657823 0.12676,0.04554 c 0.3958,1.605758 0.93423,3.186594 1.2283,4.814556 0.19553,1.256173 0.13628,2.609767 0.17219,3.88214 0.0304,1.081607 0.13798,2.189042 0.0771,3.270082 -0.0301,0.537292 -0.25216,1.119103 -0.24083,1.64552 0.18861,0.353323 0.0415,0.980787 0.0798,1.379649 -0.0724,2.707983 -1.77659,5.786054 -3.2114,8.024147 -2.02864,3.164504 -4.39089,5.597327 -7.175222,8.090415 -8.417118,7.536699 -18.740302,12.795203 -29.524994,16.01986 -3.634054,1.086591 -7.358847,1.664324 -11.054866,2.469186 2.75624,2.630837 6.209272,4.767317 9.492268,6.670434 1.032897,0.59881 2.058769,1.24258 3.150798,1.72856 1.145611,0.50988 2.430897,0.91429 3.671777,1.09758 -0.952693,0.33202 -1.968597,0.58929 -2.977025,0.64513 -0.440663,-0.19507 -0.788549,-0.5391 -1.230231,-0.73462 -0.80135,-0.3548 -1.659567,-0.58306 -2.462049,-0.94216 -2.155171,-0.96436 -4.283495,-2.19981 -6.273276,-3.46912 -4.02783,-2.569305 -7.549057,-5.872353 -10.74562,-9.407853 Q 50.803644,89.904559 50.142763,89.139799 49.481995,88.375153 48.840258,87.594193 48.198521,86.813347 47.576382,86.016869 46.954243,85.220277 46.352041,84.408505 45.749839,83.596733 45.167914,82.770349 44.58599,81.943964 44.024796,81.103419 43.463602,80.26276 42.923365,79.408508 42.383241,78.554256 41.864301,77.686864 41.345474,76.819471 40.848283,75.939504 40.351093,75.059537 39.875993,74.16745 39.400779,73.275475 38.947768,72.371832 38.494871,71.468303 38.064516,70.553786 37.634048,69.639268 37.226463,68.714442 36.818878,67.789503 36.434403,66.854821 36.049927,65.92014 35.688674,64.976056 35.327421,64.032085 34.98973,63.079505 C 34.170029,60.757811 33.41569,58.428527 32.884403,56.021079 32.23383,53.073508 31.710585,50.022737 31.470429,47.013201 30.66738,36.94977 32.40647,25.602865 36.885374,16.509686 c 0.743463,-1.509469 1.615274,-2.961278 2.520956,-4.377744 0.957451,-0.508179 2.951989,-1.259651 4.00992,-1.613563 -0.585549,1.143787 -1.656734,2.017976 -2.361342,3.107173 q -0.456296,0.699397 -0.884611,1.416352 -0.428429,0.716842 -0.828198,1.45011 -0.399655,0.733155 -0.770197,1.481603 -0.370542,0.748447 -0.711178,1.510828 -0.34075,0.762495 -0.65114,1.53779 -0.31039,0.775295 -0.589854,1.562145 -0.279577,0.786963 -0.527889,1.584348 -0.248312,0.797272 -0.464905,1.603832 c 1.211313,-0.804974 2.407674,-1.99737 3.526324,-2.947118 1.489985,-1.265122 3.058813,-2.472698 4.622204,-3.646402 1.614481,-1.212107 3.342583,-2.51178 5.151794,-3.421086 0.688975,-0.346187 1.445692,-0.440437 2.158456,-0.717183 1.318024,-0.511916 2.616791,-1.071524 3.943765,-1.561012 q 3.101973,-1.132357 6.284037,-2.015155 c 1.3852,-0.394683 2.871786,-0.830429 4.305471,-0.984956 z"
     id="path49"
     style="stroke-width:0.113281" />
  <path
     fill="#464c58"
     d="m 33.473804,38.951898 c 1.640762,0.549866 3.322078,0.986338 4.972129,1.508224 2.823529,0.892994 5.654421,1.893945 8.434903,2.91506 q 2.97442,1.115138 5.909077,2.331096 2.934545,1.215958 5.826042,2.531377 2.891384,1.315306 5.736323,2.7286 2.844826,1.413293 5.639808,2.922763 c 2.862724,1.549004 5.720124,3.13154 8.461071,4.890227 2.136593,1.37104 4.186979,2.864197 6.230116,4.368569 -0.792854,0.362499 -1.606098,0.682518 -2.400085,1.044224 -0.942724,0.420159 -1.883183,0.857877 -2.840861,1.242693 -0.90149,0.362159 -1.882957,0.658842 -2.726447,1.142552 -0.566292,-0.525171 -1.296161,-0.9536 -1.934047,-1.390751 -1.499953,-1.028025 -3.027774,-2.011531 -4.535431,-3.027435 q -3.29693,-2.231069 -6.694907,-4.304904 -3.39809,-2.073836 -6.889637,-3.986019 -3.49166,-1.91207 -7.069188,-3.658183 -3.577527,-1.746114 -7.232992,-3.322419 -2.410846,-1.054306 -4.862133,-2.010511 c -1.375232,-0.523018 -2.795889,-0.9954 -4.140194,-1.590692 -0.0059,-1.447731 0.05245,-2.888665 0.116453,-4.334471 z"
     id="path50"
     style="stroke-width:0.113281" />
  <path
     fill="#464c58"
     d="m 107.8668,48.75399 0.0973,0.02198 c 0.37428,-0.478839 0.57751,-1.111627 0.66349,-1.709071 0.0224,-0.155421 0.01,-0.410757 0.0727,-0.546581 0.004,0.03738 0.008,0.07465 0.0122,0.111922 0.0365,0.301667 0.14783,0.610924 0.22849,0.904435 0.31152,1.134623 0.78889,2.376296 0.75592,3.561215 l -0.0208,-0.05313 c -0.0498,-0.124156 -0.0792,-0.218745 -0.1919,-0.300081 -0.13458,0.09855 -0.57649,1.145951 -0.61285,1.350649 -0.004,0.02277 -0.004,0.04611 -0.006,0.06921 l 0.0701,0.0083 c -1.00265,2.515064 -3.88939,5.283539 -5.88631,7.085953 q -0.75898,0.67708 -1.53178,1.338301 -0.7728,0.661335 -1.559087,1.30647 -0.786284,0.645136 -1.585708,1.273958 -0.799424,0.62871 -1.611649,1.24088 -0.812338,0.612058 -1.637023,1.207349 -0.824686,0.595179 -1.661606,1.173252 -0.836807,0.578073 -1.685395,1.138814 -0.848588,0.560627 -1.708617,1.103583 -0.860029,0.543069 -1.731047,1.06824 -0.871018,0.525057 -1.752684,1.032103 -0.881779,0.507046 -1.773754,0.99574 -0.891974,0.488808 -1.793804,0.958924 -0.901944,0.470229 -1.813289,0.921654 -0.911459,0.451538 -1.831981,0.884045 -0.920521,0.432507 -1.849765,0.845982 -0.929244,0.413363 -1.866871,0.807581 c -2.317503,0.996306 -4.627529,1.947413 -7.009035,2.781501 q -1.439462,0.492093 -2.886287,0.962209 c -0.418913,0.137976 -0.88699,0.250351 -1.285966,0.435566 -0.992681,0.313108 -1.981851,0.643662 -2.981895,0.931509 -0.70778,0.203793 -1.449204,0.363292 -2.144976,0.600163 -0.402374,0.04248 -0.843377,0.193937 -1.239181,0.294531 -0.906021,0.2303 -1.811363,0.479178 -2.723842,0.682064 -2.148374,0.477593 -4.310228,0.801124 -6.476161,1.175631 -1.254701,-1.385087 -4.090917,-5.408488 -4.83506,-7.089805 1.351896,-0.3173 2.738002,-0.499229 4.099073,-0.775635 2.607955,-0.529589 5.219082,-1.140853 7.810838,-1.74702 q 4.77015,-1.140739 9.485245,-2.490822 c 11.80558,-3.367504 23.320253,-7.883225 33.241403,-15.253967 q 2.280914,-1.673726 4.429624,-3.514089 c 1.14029,-0.956998 2.30063,-1.936992 3.30905,-3.035138 0.50977,-0.55519 0.94715,-1.171666 1.41908,-1.758348 z"
     id="path51"
     style="stroke-width:0.113281" />
  <defs
     id="defs52">
    <linearGradient
       id="gradient_4"
       gradientUnits="userSpaceOnUse"
       x1="690.50391"
       y1="520.07062"
       x2="737.79956"
       y2="780.06378"
       gradientTransform="matrix(0.113281,0,0,0.113281,6.10352e-5,0)">
      <stop
         offset="0"
         stop-color="#141A22"
         id="stop51" />
      <stop
         offset="1"
         stop-color="#2D323E"
         id="stop52" />
    </linearGradient>
  </defs>
  <path
     fill="url(#gradient_4)"
     d="m 108.37985,45.423642 0.12676,0.04554 c 0.3958,1.605758 0.93423,3.186594 1.2283,4.814556 0.19553,1.256173 0.13628,2.609767 0.17219,3.88214 0.0304,1.081607 0.13798,2.189042 0.0771,3.270082 -0.0301,0.537292 -0.25216,1.119103 -0.24083,1.64552 -0.15916,0.81551 -0.47963,1.611196 -0.8018,2.375389 -0.76454,1.813063 -1.81567,3.604262 -2.97703,5.190649 -1.00208,1.368888 -2.14679,2.606369 -3.30384,3.843171 -0.6687,0.714803 -1.31916,1.450677 -2.01198,2.141804 -2.450045,2.444151 -5.768045,5.25318 -8.630316,7.183828 -2.056617,1.387239 -4.160018,2.764283 -6.323912,3.979448 -2.016742,1.13247 -4.15696,2.215097 -6.282451,3.134146 -0.708233,0.306198 -1.43527,0.570596 -2.148261,0.866033 -3.285036,1.361524 -6.634868,2.601498 -10.091524,3.454617 -1.835379,0.452898 -3.686957,0.906815 -5.54839,1.237935 -1.536431,0.273234 -3.173341,0.387308 -4.657889,0.870111 -1.805812,-1.639289 -3.436266,-3.378039 -5.03636,-5.21489 -0.437491,-0.502288 -0.97954,-1.017944 -1.307262,-1.596356 -0.04135,-0.07295 -0.08326,-0.144887 -0.123703,-0.218293 0.975916,-0.28762 2.020366,-0.413022 3.020185,-0.596764 q 1.92521,-0.351964 3.822893,-0.83069 c 0.569464,-0.141148 1.227513,-0.25862 1.764125,-0.49028 0.570937,-0.07692 1.182201,-0.297023 1.741696,-0.447573 q 2.288503,-0.593819 4.528861,-1.349177 c 0.02039,-0.0035 0.04101,-0.0059 0.06117,-0.01065 0.659522,-0.155308 1.322442,-0.420159 1.964066,-0.641964 q 2.344916,-0.80792 4.649165,-1.725269 c 1.418618,-0.553378 2.855021,-1.080814 4.253588,-1.682223 1.525442,-0.655897 3.015088,-1.398907 4.509151,-2.123226 6.31938,-3.063458 12.549609,-6.602696 18.018929,-11.036628 1.436859,-1.164755 2.776859,-2.475756 4.124899,-3.741671 2.03204,-1.908219 4.19967,-3.96291 5.66779,-6.354385 0.97966,-1.595676 1.30285,-2.56185 0.86921,-4.405951 -0.19858,0.421519 -0.35163,0.860709 -0.55916,1.280189 l -0.0701,-0.0083 c 0.002,-0.02311 0.002,-0.04644 0.006,-0.06921 0.0364,-0.204698 0.47827,-1.252094 0.61285,-1.350649 0.11272,0.08134 0.14206,0.175925 0.1919,0.300081 l 0.0208,0.05313 c 0.033,-1.184919 -0.4444,-2.426592 -0.75592,-3.561215 -0.0807,-0.293511 -0.19201,-0.602768 -0.22849,-0.904435 -0.005,-0.03727 -0.008,-0.07454 -0.0122,-0.111922 -0.0628,0.135824 -0.0503,0.39116 -0.0727,0.546581 -0.086,0.597444 -0.28921,1.230232 -0.66349,1.709071 l -0.0973,-0.02198 c 0.66518,-1.150142 0.79002,-2.033507 0.51305,-3.330348 z"
     id="path52"
     style="fill:url(#gradient_4);stroke-width:0.113281" />
  <path
     fill="#464c58"
     d="m 33.470632,45.576345 c 1.143005,0.524377 2.378334,0.917123 3.553625,1.370587 q 3.173227,1.226833 6.282677,2.607162 6.839227,3.075579 13.424025,6.663641 4.523424,2.577483 8.906832,5.386512 4.383408,2.808916 8.61502,5.841788 -3.095063,1.016923 -6.213463,1.960101 c -2.51699,0.785943 -5.069551,1.425755 -7.621319,2.08403 -1.025986,0.264738 -2.040984,0.575694 -3.069235,0.830463 q -7.147691,1.720172 -14.355082,3.169716 C 41.876535,73.778216 40.906283,71.747314 40.032094,69.9014 36.397246,62.225933 33.961025,54.079217 33.470632,45.576345 Z"
     id="path53"
     style="stroke-width:0.113281" />
</svg>
