<?xml version="1.0" encoding="utf-8" ?>
<svg xmlns="http://www.w3.org/2000/svg" xmlns:xlink="http://www.w3.org/1999/xlink" width="200" height="200">
	<path fill="#A74357" transform="scale(0.3125 0.3125)" d="M305.098 120.992L354.52 120.992C357.446 123.445 359.553 127.095 361.715 130.214C352.528 130.413 343.311 129.716 334.141 130.214C315.113 129.749 295.959 130.956 276.954 130.214C278.565 126.876 281.927 123.562 284.579 120.992C291.23 121.523 298.421 121.271 305.098 120.992Z"/>
	<path fill="#A74357" transform="scale(0.3125 0.3125)" d="M287.536 137.241L339.335 137.234C356.954 137.236 365.071 132.806 376.307 147.187C367.532 146.103 358.452 146.47 349.609 146.409L292.793 146.308C285.971 146.328 279.166 146.397 272.343 146.308C269.594 146.272 259.1 147.404 264.19 141.738C270.189 135.06 279.111 137.832 287.03 137.279L287.536 137.241Z"/>
	<path fill="#A74357" transform="scale(0.3125 0.3125)" d="M257.264 152.862C263.478 152.569 269.829 152.849 276.056 152.851L356.494 152.85C369.029 152.837 384.102 148.777 389.358 162.028C385.915 162.166 382.431 162.047 378.984 162.028C368.545 162.353 358.086 162.029 347.645 162.027L295.652 161.986C279.77 161.896 263.9 161.686 248.016 162.028C249.478 157.642 252.909 154.389 257.264 152.862Z"/>
	<path fill="#A74357" transform="scale(0.3125 0.3125)" d="M256.506 168.382C263.981 168.071 271.455 168.366 278.935 168.376L362.654 168.378C374.378 168.367 398.531 164.053 402.185 177.097C395.043 178.03 387.353 177.272 380.156 177.097C332.178 177.585 284.159 176.956 236.177 177.097C237.518 173.665 239.114 171.034 241.681 168.382C246.575 168.125 251.598 168.369 256.506 168.382Z"/>
	<path fill="#A74357" transform="scale(0.3125 0.3125)" d="M231.92 184.102C237.408 183.577 243.923 184.094 249.532 184.094L352.055 184.4C360.386 184.365 402.323 182.657 408.564 185.011C410.747 185.834 411.667 190.784 412.306 192.847C410.304 193.045 408.296 192.919 406.291 192.847C403.183 193.461 394.148 192.855 390.493 192.851L226.705 192.847C227.533 189.046 228.571 186.308 231.92 184.102Z"/>
	<path fill="#A74357" transform="scale(0.3125 0.3125)" d="M223.921 204.516C228.649 204.059 233.769 204.506 238.541 204.505L270.654 204.522C283.62 204.53 413.358 203.928 415.114 205.007C416.781 206.032 417.356 212.285 416.512 213.538C414.61 213.491 412.694 213.775 410.786 213.766L264.14 213.54C258.852 213.54 226.212 214.116 223.828 213.18C221.204 212.15 223.095 206.157 223.921 204.516Z"/>
	<path fill="#A74357" transform="scale(0.3125 0.3125)" d="M225.301 225.401C230.565 225.002 236.14 225.373 241.432 225.385L373.752 225.385C386.027 225.377 405.189 226.836 416.512 225.401C416.445 228.42 416.556 231.924 415.583 234.806C407.524 236.185 386.948 234.797 377.495 234.798L275.552 234.799C270.597 234.8 228.762 235.296 227.581 234.67C225.131 233.37 223.993 227.645 225.301 225.401Z"/>
	<path fill="#A74357" transform="scale(0.3125 0.3125)" d="M316.24 56.3986C341.857 53.8245 352.542 72.8094 352.528 95.7338L352.498 112.312C349.394 112.575 346.131 112.346 343.011 112.34L323.747 112.312L287.536 112.312C287.839 88.9143 285.44 61.4769 316.24 56.3986Z"/>
	<path fill="#A74357" transform="scale(0.3125 0.3125)" d="M469.444 356.576C474.712 355.206 485.528 369.414 490.305 372.292C497.289 369.358 505.671 363.238 512.776 359.178C512.886 361.632 514.09 366.482 512.729 368.628C509.127 374.31 497.082 381.038 491.868 387.146C489.937 383.967 473.142 371.039 469.444 368.871C461.551 372.977 455.05 379.69 447.165 383.492C439.958 379.441 433.394 373.545 426.535 368.871C418.221 372.657 410.678 379.421 403.88 385.447C398.831 378.723 391.004 374.094 384.515 368.871C376.871 373.364 368.354 379.556 361.715 385.447C356.735 378.938 348.945 373.877 342.486 368.871C336.06 373.163 325.829 380.858 319.018 383.492C312.477 380.587 304.373 373.094 297.995 368.871C290.283 373.584 283.476 379.211 276.954 385.447C270.589 379.255 263.408 374.4 256.506 368.871C248.191 373.345 240.701 379.188 233.651 385.447C228.186 379.321 221.011 374.3 214.853 368.871C207.173 373.28 200.209 378.727 192.76 383.492C189.351 381.495 186.302 379.04 183.182 376.63C180.122 374.1 177.119 371.532 174.173 368.871C165.983 373.02 159.21 379.514 152.298 385.447C148.699 378.449 144.175 372.233 135.893 370.873C135.246 366.883 134.558 363.203 135.321 359.178C142.685 361.091 146.642 367.575 153.123 370.873C159.008 367.852 166.561 358.976 172.328 357.555C177.912 356.179 187.706 368.199 192.76 370.873C198.949 368.224 208.762 357.897 214.293 357.238C218.73 356.709 229.332 369.105 233.283 372.024L233.651 372.292C239.998 367.239 250.388 360.183 257.264 356.576C262.717 358.807 271.386 367.524 276.954 371.529C284.845 368.063 290.471 360.69 297.995 356.576C303.698 358.92 313.454 368.233 319.018 372.292C326.654 367.712 334.857 359.869 342.486 356.576C350.054 359.605 355.273 366.821 361.715 371.529C387.045 361.119 376.621 346.275 404.604 371.529C412.384 367.39 418.565 360.617 426.535 356.576C434.023 360.432 439.525 367.216 447.165 370.873C454.44 366.733 462.136 359.054 469.444 356.576Z"/>
	<path fill="#A74357" transform="scale(0.3125 0.3125)" d="M135.321 332.747C136.545 333.964 137.127 336.745 138.806 338.412C143.518 343.09 148.958 344.97 153.123 350.911C180.103 335.62 162.715 326.726 194.299 351.489C217.682 336.256 209.087 327.511 235.063 351.489C242.099 346.7 249.837 339.319 257.264 335.787C265.345 339.476 270.628 347.018 278.142 351.489C285.973 346.992 291.248 339.377 300.053 336.421C306.58 338.773 315.794 348.203 320.628 353.507C346.053 325.58 342.514 338.395 364.252 351.206L364.737 351.489C367.874 348.627 380.953 337.802 384.215 336.764C390.383 334.801 400.896 347.739 406.752 350.707L407.158 350.911C412.935 347.661 419.628 338.833 425.537 337.476C432.78 335.813 441.76 347.707 447.716 351.241L448.139 351.489C456.315 348.03 463.522 337.417 472.051 335.787C480.829 338.815 486.222 346.588 493.803 351.489C501.628 347.35 508.777 340.255 513.44 332.747C512.335 336.487 512.749 340.741 512.776 344.609C512.735 347.571 512.628 350.548 512.776 353.507C506.985 356.25 498.659 362.674 492.649 363.492C488.243 364.092 476.861 352.044 472.051 348.327C466.723 351.568 451.425 363.274 448.443 363.925C444.187 364.855 431.528 352.815 426.535 349.536C419.159 353.854 413.756 361.129 406.291 365.142C399.473 360.11 393.368 354.314 386.345 349.536C378.409 354.5 371.289 361.108 362.812 365.142C356.098 360.165 350.066 353.062 342.486 349.536C334.078 353.897 328.328 362.387 319.018 365.142C313.642 362.307 305.434 353.769 298.927 349.536C292.371 353.072 282.242 366.218 277.508 364.41C272.633 362.548 263.17 353.461 257.264 349.933C249.265 354.712 242.03 361.115 233.651 365.142C227.045 360.451 222.274 353.069 214.853 349.536C208.293 353.043 203.364 359.533 196.513 362.479C188.063 366.112 182.521 352.985 174.674 349.741L174.173 349.536C166.41 353.165 160.805 359.901 153.123 363.352C139.942 356.125 132.941 347.892 135.321 332.747Z"/>
	<path fill="#A74357" transform="scale(0.3125 0.3125)" d="M82.8626 81.5442C86.258 83.2836 93.3128 90.3619 97.3617 93.2461C121.257 110.268 121.165 103.747 136.985 128.712L189.59 212.203C195.595 221.755 206.554 237.785 210.562 248.111C215.647 247.791 220.934 248.088 226.038 248.094L389.954 248.084C395.798 248.118 410.62 250.153 415.058 245.827C422.683 238.396 428.791 218.977 438.31 208.99C442.805 204.274 448.576 200.751 453.484 196.49C455.73 194.539 457.145 191.735 459.389 189.71C464.818 184.81 542.133 118.56 545.496 117.684L545.898 117.99C545.026 123.611 480.237 205.603 471.492 215.286C461.001 226.904 449.284 238.437 437.033 248.111C450.761 248.263 464.508 248.108 478.239 248.104C490.811 248.101 507.312 244.937 513.44 259.139C516.448 265.784 515.992 297.754 514.275 299.839C511.926 302.689 495.258 316.498 493.358 316.373C489.851 316.143 476.24 301.487 472.77 298.361C466.44 304.624 460.114 312.065 452.236 316.331C445.095 313.259 436.961 303.892 430.588 298.361C426.41 301.803 412.889 318.432 407.263 315.618C399.472 311.722 395.162 302.506 387.321 298.361C379.327 303.391 374.096 311.808 365.646 316.331C357.213 312.248 350.689 304.467 343.682 298.361C337.271 304.199 330.788 313.165 322.657 316.331C315.45 311.999 308.399 303.899 301.4 298.361C295.219 303.768 287.099 313.953 279.419 316.331C272.25 313.088 264.492 302.52 257.264 297.586C249.607 303.603 244.193 312.231 235.063 316.331C227.398 312.552 218.868 304.288 213.51 297.586C206.647 301.405 199.19 313.398 192.686 314.989C186.945 316.393 176.231 303.164 170.113 299.595L169.643 299.324C154.746 313.972 155.468 322.822 138.949 308.369C130.141 300.664 131.326 267.497 133.968 259.21C138.814 244.011 160.448 248.856 172.294 248.146L172.84 248.111C165.601 241.194 161.013 231.836 155.576 223.54L103.997 145.075C97.3729 134.886 91.2978 126.109 87.8516 114.342C86.2863 108.997 79.0388 84.6077 82.8626 81.5442ZM280.383 295.926L272.658 295.926C274.9 298.118 277.57 300.32 279.419 302.843C282.313 301 284.415 298.497 286.65 295.926C284.797 295.775 283.109 295.721 281.251 295.865L280.383 295.926ZM238.448 295.926C234.866 295.916 231.275 295.857 227.694 295.926C229.565 298.041 231.664 299.697 233.651 301.661L234.087 302.49L234.594 302.608C237.227 300.941 239.504 298.166 241.681 295.926C240.679 295.909 239.418 295.735 238.448 295.926ZM361.715 295.406L359.859 295.689C358.422 297.802 363.49 301.385 364.737 302.843L367.067 300.577C368.635 299.079 370.387 297.604 371.754 295.926C368.51 295.098 365.039 295.359 361.715 295.406ZM411.257 295.406C408.252 295.592 405.167 295.559 402.185 295.926C403.862 297.817 405.576 299.688 407.158 301.661L408.188 302.471C410.489 302.086 413.957 297.588 415.583 295.926C414.159 295.722 412.696 295.432 411.257 295.406ZM486.947 295.406C488.231 298.165 491.641 300.691 493.803 302.843C494.533 301.663 495.267 300.487 496.025 299.324C497.29 298.246 498.491 297.207 499.564 295.926C495.692 294.809 490.963 295.207 486.947 295.406ZM316.24 295.926C318.675 298.324 321.158 300.611 323.747 302.843C324.67 301.672 325.57 300.33 326.669 299.324L329.482 295.926C325.078 295.748 320.647 295.879 316.24 295.926ZM445.333 295.926C447.624 298.241 449.908 300.564 452.236 302.843C453.204 301.694 454.128 300.538 455.015 299.324C456.074 298.251 457.309 297.18 458.145 295.926C453.874 295.865 449.604 295.902 445.333 295.926ZM184.135 295.926C186.559 298.309 188.966 300.667 191.581 302.843C192.442 301.674 193.268 300.341 194.299 299.324C195.265 298.215 196.239 297.128 197.089 295.926C192.769 295.984 188.455 295.97 184.135 295.926ZM149.469 295.926C148.084 296.483 146.705 297.07 145.305 297.586C146.079 298.418 150.504 302.715 151.471 301.661C153.387 299.847 155.023 297.956 156.699 295.926C154.291 295.92 151.875 295.87 149.469 295.926Z"/>
	<path fill="#A74357" transform="scale(0.3125 0.3125)" d="M469.444 380.909C474.897 386.443 480.806 391.426 485.825 397.387C497.317 395.16 503.986 396.08 512.776 387.146C512.765 391.921 513.409 396.668 513.443 401.454C513.769 447.395 497.735 487.457 456.677 512.098C451.072 515.461 445.007 517.591 439.325 520.716L438.849 520.98C436.175 527.103 435.022 535.297 427.329 536.945C422.332 538.015 404.678 537.664 400.798 534.841C396.752 531.896 395.249 525.649 394.535 520.98C388.1 520.45 381.2 520.961 374.71 520.968L279.078 520.983C270.272 520.98 261.27 520.52 252.49 520.98C251.108 525.506 249.8 533.594 245.213 535.692C240.431 537.879 222.668 537.526 217.863 535.874C212.278 533.953 210.632 526.138 208.33 521.333L208.159 520.98C204.038 517.444 198.319 515.721 193.605 513.052C178.399 504.442 165.099 492.603 155.464 477.973C147.053 465.341 140.641 450.617 137.992 435.63C137.09 430.524 133.126 401.902 136.621 397.925C140.432 395.917 147.447 397.341 151.471 398.083C159.185 395.718 165.967 386.686 172.84 382.062C177.25 386.626 186.044 394.687 191.581 397.387C199.836 394.57 206.062 386.69 213.51 382.062C219.598 387.011 224.976 394.403 231.92 398.083C244.41 393.97 246.447 385.997 255.55 382.062C262.313 386.992 267.307 395.722 275.551 398.083C285.4 395.779 290.333 386.424 298.927 382.062C304.79 386.866 309.49 393.858 316.24 397.387C326.668 395.889 331.903 386.276 341.038 382.062C347.362 386.999 352.056 393.995 359.026 398.083C373.295 392.814 373.375 387.104 383.118 382.062C390.326 387.131 394.931 395.814 403.88 398.083C413.726 394.634 418.459 386.485 426.535 382.062C432.132 386.776 437.646 393.979 444.047 397.387C453.509 396.431 461.498 386.191 469.444 380.909Z"/>
</svg>
